<svg id="visual" viewBox="0 0 900 100" width="900" height="100" xmlns="http://www.w3.org/2000/svg" xmlns:xlink="http://www.w3.org/1999/xlink" version="1.1"><rect x="0" y="0" width="900" height="100" fill="#006CB7"></rect><path d="M0 80L25 80.7C50 81.3 100 82.7 150 82.8C200 83 250 82 300 78.2C350 74.3 400 67.7 450 70.2C500 72.7 550 84.3 600 88.2C650 92 700 88 750 78C800 68 850 52 875 44L900 36L900 0L875 0C850 0 800 0 750 0C700 0 650 0 600 0C550 0 500 0 450 0C400 0 350 0 300 0C250 0 200 0 150 0C100 0 50 0 25 0L0 0Z" fill="#006cb7"></path><path d="M0 71L25 71.2C50 71.3 100 71.7 150 72.3C200 73 250 74 300 76.8C350 79.7 400 84.3 450 79.8C500 75.3 550 61.7 600 61.3C650 61 700 74 750 75.2C800 76.3 850 65.7 875 60.3L900 55L900 0L875 0C850 0 800 0 750 0C700 0 650 0 600 0C550 0 500 0 450 0C400 0 350 0 300 0C250 0 200 0 150 0C100 0 50 0 25 0L0 0Z" fill="#3e7bbf"></path><path d="M0 71L25 64.7C50 58.3 100 45.7 150 45.8C200 46 250 59 300 57.2C350 55.3 400 38.7 450 39.7C500 40.7 550 59.3 600 65.5C650 71.7 700 65.3 750 64C800 62.7 850 66.3 875 68.2L900 70L900 0L875 0C850 0 800 0 750 0C700 0 650 0 600 0C550 0 500 0 450 0C400 0 350 0 300 0C250 0 200 0 150 0C100 0 50 0 25 0L0 0Z" fill="#5d8ac7"></path><path d="M0 35L25 31.8C50 28.7 100 22.3 150 28C200 33.7 250 51.3 300 51.7C350 52 400 35 450 28.7C500 22.3 550 26.7 600 28.2C650 29.7 700 28.3 750 30.5C800 32.7 850 38.3 875 41.2L900 44L900 0L875 0C850 0 800 0 750 0C700 0 650 0 600 0C550 0 500 0 450 0C400 0 350 0 300 0C250 0 200 0 150 0C100 0 50 0 25 0L0 0Z" fill="#779acf"></path><path d="M0 20L25 25C50 30 100 40 150 45.2C200 50.3 250 50.7 300 45C350 39.3 400 27.7 450 27.3C500 27 550 38 600 44.3C650 50.7 700 52.3 750 47.8C800 43.3 850 32.7 875 27.3L900 22L900 0L875 0C850 0 800 0 750 0C700 0 650 0 600 0C550 0 500 0 450 0C400 0 350 0 300 0C250 0 200 0 150 0C100 0 50 0 25 0L0 0Z" fill="#8faad7"></path><path d="M0 53L25 49.2C50 45.3 100 37.7 150 36.2C200 34.7 250 39.3 300 38.5C350 37.7 400 31.3 450 32.8C500 34.3 550 43.7 600 41.7C650 39.7 700 26.3 750 22.5C800 18.7 850 24.3 875 27.2L900 30L900 0L875 0C850 0 800 0 750 0C700 0 650 0 600 0C550 0 500 0 450 0C400 0 350 0 300 0C250 0 200 0 150 0C100 0 50 0 25 0L0 0Z" fill="#a6badf"></path><path d="M0 26L25 23.7C50 21.3 100 16.7 150 16.3C200 16 250 20 300 20C350 20 400 16 450 14.8C500 13.7 550 15.3 600 19.2C650 23 700 29 750 30.8C800 32.7 850 30.3 875 29.2L900 28L900 0L875 0C850 0 800 0 750 0C700 0 650 0 600 0C550 0 500 0 450 0C400 0 350 0 300 0C250 0 200 0 150 0C100 0 50 0 25 0L0 0Z" fill="#bdcbe7"></path><path d="M0 21L25 18.5C50 16 100 11 150 9.7C200 8.3 250 10.7 300 13.2C350 15.7 400 18.3 450 21.5C500 24.7 550 28.3 600 26.2C650 24 700 16 750 13.5C800 11 850 14 875 15.5L900 17L900 0L875 0C850 0 800 0 750 0C700 0 650 0 600 0C550 0 500 0 450 0C400 0 350 0 300 0C250 0 200 0 150 0C100 0 50 0 25 0L0 0Z" fill="#d3dcef"></path><path d="M0 11L25 12.8C50 14.7 100 18.3 150 20.5C200 22.7 250 23.3 300 23.8C350 24.3 400 24.7 450 24.8C500 25 550 25 600 25C650 25 700 25 750 23C800 21 850 17 875 15L900 13L900 0L875 0C850 0 800 0 750 0C700 0 650 0 600 0C550 0 500 0 450 0C400 0 350 0 300 0C250 0 200 0 150 0C100 0 50 0 25 0L0 0Z" fill="#e9edf7"></path><path d="M0 10L25 10.7C50 11.3 100 12.7 150 11.8C200 11 250 8 300 6.7C350 5.3 400 5.7 450 7.2C500 8.7 550 11.3 600 10.3C650 9.3 700 4.7 750 2.7C800 0.7 850 1.3 875 1.7L900 2L900 0L875 0C850 0 800 0 750 0C700 0 650 0 600 0C550 0 500 0 450 0C400 0 350 0 300 0C250 0 200 0 150 0C100 0 50 0 25 0L0 0Z" fill="#ffffff"></path></svg>