<svg id="visual" viewBox="0 0 900 100" width="900" height="100" xmlns="http://www.w3.org/2000/svg" xmlns:xlink="http://www.w3.org/1999/xlink" version="1.1"><rect x="0" y="0" width="900" height="100" fill="#FFFFFF"></rect><path d="M0 37L75 40.7C150 44.3 300 51.7 450 54.3C600 57 750 55 825 54L900 53L900 0L825 0C750 0 600 0 450 0C300 0 150 0 75 0L0 0Z" fill="#69acdb"></path><path d="M0 66L75 61.7C150 57.3 300 48.7 450 51.2C600 53.7 750 67.3 825 74.2L900 81L900 0L825 0C750 0 600 0 450 0C300 0 150 0 75 0L0 0Z" fill="#61a6d8"></path><path d="M0 64L75 67.2C150 70.3 300 76.7 450 73.3C600 70 750 57 825 50.5L900 44L900 0L825 0C750 0 600 0 450 0C300 0 150 0 75 0L0 0Z" fill="#59a0d5"></path><path d="M0 39L75 38.2C150 37.3 300 35.7 450 40.3C600 45 750 56 825 61.5L900 67L900 0L825 0C750 0 600 0 450 0C300 0 150 0 75 0L0 0Z" fill="#529bd2"></path><path d="M0 27L75 29.3C150 31.7 300 36.3 450 43.2C600 50 750 59 825 63.5L900 68L900 0L825 0C750 0 600 0 450 0C300 0 150 0 75 0L0 0Z" fill="#4a95cf"></path><path d="M0 21L75 22.2C150 23.3 300 25.7 450 27.2C600 28.7 750 29.3 825 29.7L900 30L900 0L825 0C750 0 600 0 450 0C300 0 150 0 75 0L0 0Z" fill="#428fcc"></path><path d="M0 24L75 27.2C150 30.3 300 36.7 450 39.7C600 42.7 750 42.3 825 42.2L900 42L900 0L825 0C750 0 600 0 450 0C300 0 150 0 75 0L0 0Z" fill="#3a89c8"></path><path d="M0 39L75 38C150 37 300 35 450 32.8C600 30.7 750 28.3 825 27.2L900 26L900 0L825 0C750 0 600 0 450 0C300 0 150 0 75 0L0 0Z" fill="#3183c5"></path><path d="M0 15L75 17.3C150 19.7 300 24.3 450 27.8C600 31.3 750 33.7 825 34.8L900 36L900 0L825 0C750 0 600 0 450 0C300 0 150 0 75 0L0 0Z" fill="#287dc2"></path><path d="M0 20L75 17.5C150 15 300 10 450 8.7C600 7.3 750 9.7 825 10.8L900 12L900 0L825 0C750 0 600 0 450 0C300 0 150 0 75 0L0 0Z" fill="#1e78be"></path><path d="M0 11L75 12.7C150 14.3 300 17.7 450 17.3C600 17 750 13 825 11L900 9L900 0L825 0C750 0 600 0 450 0C300 0 150 0 75 0L0 0Z" fill="#1272bb"></path><path d="M0 4L75 4C150 4 300 4 450 3.7C600 3.3 750 2.7 825 2.3L900 2L900 0L825 0C750 0 600 0 450 0C300 0 150 0 75 0L0 0Z" fill="#006cb7"></path></svg>